# xmcd CD database file
#
# Track frame offsets:
#	150
#	16541
#	32100
#	46239
#	60766
#	77508
#	91819
#	107772
#	124055
#	142195
#	161073
#	180762
#	198590
#	214190
#	233283
#	249387
#
# Disc length: 3550 seconds
#
# Revision: 0
# Processed by: cddbd v1.4PL0 Copyright (c) Steve Scherf et al.
# Submitted via: CDex 1.50beta9
#
DISCID=bd0ddc10
DTITLE=Mr. Acker Bilk - 32 Golden Hits CD 1
DYEAR=1900
DGENRE=Jazz
TTITLE0=Arthur's Theme
TTITLE1=Do That One More Time
TTITLE2=This Masquerade
TTITLE3=Stuck On You
TTITLE4=If Ever You're In My Arms Again
TTITLE5=Could I Have This Dance
TTITLE6=To All The Girls I've Loved Before
TTITLE7=Three Times A Lady
TTITLE8=Just When I Needed You Most
TTITLE9=I Want To Know What Love Is
TTITLE10=I Just Called To Say I Love You
TTITLE11=Longfellow Serenade
TTITLE12=Truly
TTITLE13=One Hundred Ways
TTITLE14=Still
TTITLE15=Always On My Mind
EXTD=
EXTT0=
EXTT1=
EXTT2=
EXTT3=
EXTT4=
EXTT5=
EXTT6=
EXTT7=
EXTT8=
EXTT9=
EXTT10=
EXTT11=
EXTT12=
EXTT13=
EXTT14=
EXTT15=
PLAYORDER=
